<svg id="visual" viewBox="0 0 900 600" width="900" height="600" xmlns="http://www.w3.org/2000/svg" xmlns:xlink="http://www.w3.org/1999/xlink" version="1.1"><g stroke-width="1" stroke-linejoin="bevel"><path d="M455.5 272L464.5 229L443.6 226Z" fill="#7dcaac" stroke="#7dcaac"></path><path d="M440.6 152L415.6 211L443.6 226Z" fill="#7dcaac" stroke="#7dcaac"></path><path d="M443.6 226L365.5 266L455.5 272Z" fill="#7dcaac" stroke="#7dcaac"></path><path d="M567.3 230L491.5 195L464.5 229Z" fill="#95cfab" stroke="#95cfab"></path><path d="M464.5 229L491.5 195L443.6 226Z" fill="#aad4ac" stroke="#aad4ac"></path><path d="M455.5 272L508.4 305L464.5 229Z" fill="#aad4ac" stroke="#aad4ac"></path><path d="M493.4 310L508.4 305L455.5 272Z" fill="#aad4ac" stroke="#aad4ac"></path><path d="M537.4 146L488.4 172L491.5 195Z" fill="#8fceab" stroke="#8fceab"></path><path d="M491.5 195L440.6 152L443.6 226Z" fill="#a0d2ab" stroke="#a0d2ab"></path><path d="M415.6 211L365.5 266L443.6 226Z" fill="#8fceab" stroke="#8fceab"></path><path d="M407.5 334L493.5 334L493.4 310Z" fill="#a0d2ab" stroke="#a0d2ab"></path><path d="M365.5 266L364.6 285L455.5 272Z" fill="#71c7ae" stroke="#71c7ae"></path><path d="M407.5 334L493.4 310L455.5 272Z" fill="#a0d2ab" stroke="#a0d2ab"></path><path d="M493.4 310L493.5 334L508.4 305Z" fill="#95cfab" stroke="#95cfab"></path><path d="M364.6 285L407.5 334L455.5 272Z" fill="#8fceab" stroke="#8fceab"></path><path d="M488.4 172L440.6 152L491.5 195Z" fill="#89cdab" stroke="#89cdab"></path><path d="M347.6 202L343.5 260L365.5 266Z" fill="#aad4ac" stroke="#aad4ac"></path><path d="M493.5 334L544.5 301L508.4 305Z" fill="#a5d3ab" stroke="#a5d3ab"></path><path d="M570.4 255L567.3 230L464.5 229Z" fill="#aad4ac" stroke="#aad4ac"></path><path d="M347.6 202L365.5 266L415.6 211Z" fill="#95cfab" stroke="#95cfab"></path><path d="M365.5 266L343.5 260L364.6 285Z" fill="#a5d3ab" stroke="#a5d3ab"></path><path d="M348.5 148L347.6 202L415.6 211Z" fill="#7dcaac" stroke="#7dcaac"></path><path d="M289.8 310L358.5 321L364.6 285Z" fill="#a5d3ab" stroke="#a5d3ab"></path><path d="M364.6 285L358.5 321L407.5 334Z" fill="#8fceab" stroke="#8fceab"></path><path d="M570.4 255L464.5 229L508.4 305Z" fill="#77c8ad" stroke="#77c8ad"></path><path d="M544.5 301L570.4 255L508.4 305Z" fill="#7dcaac" stroke="#7dcaac"></path><path d="M358.5 321L381.6 350L407.5 334Z" fill="#7dcaac" stroke="#7dcaac"></path><path d="M407.5 334L479.5 390L493.5 334Z" fill="#7dcaac" stroke="#7dcaac"></path><path d="M289.8 310L347.6 332L358.5 321Z" fill="#89cdab" stroke="#89cdab"></path><path d="M358.5 321L347.6 332L381.6 350Z" fill="#83cbac" stroke="#83cbac"></path><path d="M567.3 230L537.4 146L491.5 195Z" fill="#7dcaac" stroke="#7dcaac"></path><path d="M488.4 172L482.4 64L440.6 152Z" fill="#7dcaac" stroke="#7dcaac"></path><path d="M563.4 143L545.4 143L537.4 146Z" fill="#8fceab" stroke="#8fceab"></path><path d="M537.4 146L482.4 64L488.4 172Z" fill="#7dcaac" stroke="#7dcaac"></path><path d="M440.6 152L348.5 148L415.6 211Z" fill="#9ad0ab" stroke="#9ad0ab"></path><path d="M285.6 213L288.6 273L343.5 260Z" fill="#aad4ac" stroke="#aad4ac"></path><path d="M330.6 142L348.5 148L368.6 56Z" fill="#95cfab" stroke="#95cfab"></path><path d="M472.5 402L479.5 390L407.5 334Z" fill="#a0d2ab" stroke="#a0d2ab"></path><path d="M565.4 357L578.3 319L544.5 301Z" fill="#95cfab" stroke="#95cfab"></path><path d="M565.4 357L544.5 301L493.5 334Z" fill="#7dcaac" stroke="#7dcaac"></path><path d="M544.5 301L578.3 319L570.4 255Z" fill="#7dcaac" stroke="#7dcaac"></path><path d="M566.4 116L563.4 143L602.4 152Z" fill="#77c8ad" stroke="#77c8ad"></path><path d="M563.4 143L567.3 230L602.4 152Z" fill="#a0d2ab" stroke="#a0d2ab"></path><path d="M567.3 230L563.4 143L537.4 146Z" fill="#a0d2ab" stroke="#a0d2ab"></path><path d="M381.6 350L472.5 402L407.5 334Z" fill="#95cfab" stroke="#95cfab"></path><path d="M479.5 390L565.4 357L493.5 334Z" fill="#a5d3ab" stroke="#a5d3ab"></path><path d="M379.5 461L472.5 402L381.6 350Z" fill="#71c7ae" stroke="#71c7ae"></path><path d="M491.4 416L565.4 357L479.5 390Z" fill="#89cdab" stroke="#89cdab"></path><path d="M289.8 310L348.6 370L347.6 332Z" fill="#71c7ae" stroke="#71c7ae"></path><path d="M347.6 332L348.6 370L381.6 350Z" fill="#71c7ae" stroke="#71c7ae"></path><path d="M368.6 56L348.5 148L440.6 152Z" fill="#7dcaac" stroke="#7dcaac"></path><path d="M348.5 148L330.6 142L347.6 202Z" fill="#8fceab" stroke="#8fceab"></path><path d="M343.5 260L289.8 310L364.6 285Z" fill="#a0d2ab" stroke="#a0d2ab"></path><path d="M566.4 116L537.4 146L545.4 143Z" fill="#77c8ad" stroke="#77c8ad"></path><path d="M285.6 213L343.5 260L347.6 202Z" fill="#83cbac" stroke="#83cbac"></path><path d="M604.4 418L582.4 351L565.4 357Z" fill="#7dcaac" stroke="#7dcaac"></path><path d="M565.4 357L582.4 351L578.3 319Z" fill="#a0d2ab" stroke="#a0d2ab"></path><path d="M602.4 152L567.3 230L653.4 187Z" fill="#77c8ad" stroke="#77c8ad"></path><path d="M330.6 142L285.6 213L347.6 202Z" fill="#71c7ae" stroke="#71c7ae"></path><path d="M426.6 476L491.4 416L472.5 402Z" fill="#77c8ad" stroke="#77c8ad"></path><path d="M472.5 402L491.4 416L479.5 390Z" fill="#aad4ac" stroke="#aad4ac"></path><path d="M259.7 331L289.8 310L288.6 273Z" fill="#83cbac" stroke="#83cbac"></path><path d="M288.6 273L289.8 310L343.5 260Z" fill="#a5d3ab" stroke="#a5d3ab"></path><path d="M567.3 230L570.4 255L636.2 282Z" fill="#71c7ae" stroke="#71c7ae"></path><path d="M563.4 143L566.4 116L545.4 143Z" fill="#77c8ad" stroke="#77c8ad"></path><path d="M636.2 282L570.4 255L578.3 319Z" fill="#95cfab" stroke="#95cfab"></path><path d="M566.4 116L482.4 64L537.4 146Z" fill="#9ad0ab" stroke="#9ad0ab"></path><path d="M629.2 343L636.2 282L578.3 319Z" fill="#89cdab" stroke="#89cdab"></path><path d="M482.4 64L458.5 54L440.6 152Z" fill="#77c8ad" stroke="#77c8ad"></path><path d="M604.4 418L629.2 343L582.4 351Z" fill="#a5d3ab" stroke="#a5d3ab"></path><path d="M582.4 351L629.2 343L578.3 319Z" fill="#71c7ae" stroke="#71c7ae"></path><path d="M208.8 314L259.7 331L288.6 273Z" fill="#8fceab" stroke="#8fceab"></path><path d="M289.8 310L258.6 370L348.6 370Z" fill="#aad4ac" stroke="#aad4ac"></path><path d="M394.5 42L368.6 56L440.6 152Z" fill="#a5d3ab" stroke="#a5d3ab"></path><path d="M330.6 142L245.7 178L285.6 213Z" fill="#89cdab" stroke="#89cdab"></path><path d="M566.4 63L561.3 69L566.4 116Z" fill="#a5d3ab" stroke="#a5d3ab"></path><path d="M566.4 116L561.3 69L482.4 64Z" fill="#95cfab" stroke="#95cfab"></path><path d="M482.4 64L485.5 2L458.5 54Z" fill="#aad4ac" stroke="#aad4ac"></path><path d="M660.2 199L567.3 230L636.2 282Z" fill="#7dcaac" stroke="#7dcaac"></path><path d="M660.2 199L653.4 187L567.3 230Z" fill="#7dcaac" stroke="#7dcaac"></path><path d="M602.4 152L629.3 126L566.4 116Z" fill="#a0d2ab" stroke="#a0d2ab"></path><path d="M436.5 0L394.5 42L458.5 54Z" fill="#89cdab" stroke="#89cdab"></path><path d="M458.5 54L394.5 42L440.6 152Z" fill="#89cdab" stroke="#89cdab"></path><path d="M670.3 201L660.2 199L636.2 282Z" fill="#83cbac" stroke="#83cbac"></path><path d="M670.2 153L629.3 126L653.4 187Z" fill="#8fceab" stroke="#8fceab"></path><path d="M653.4 187L629.3 126L602.4 152Z" fill="#a0d2ab" stroke="#a0d2ab"></path><path d="M267.8 121L245.7 178L330.6 142Z" fill="#7dcaac" stroke="#7dcaac"></path><path d="M172.8 278L208.8 314L288.6 273Z" fill="#77c8ad" stroke="#77c8ad"></path><path d="M629.3 126L566.4 63L566.4 116Z" fill="#aad4ac" stroke="#aad4ac"></path><path d="M511.4 6L485.5 2L482.4 64Z" fill="#77c8ad" stroke="#77c8ad"></path><path d="M305.7 73L267.8 121L330.6 142Z" fill="#7dcaac" stroke="#7dcaac"></path><path d="M362.5 456L379.5 461L348.6 370Z" fill="#77c8ad" stroke="#77c8ad"></path><path d="M348.6 370L379.5 461L381.6 350Z" fill="#7dcaac" stroke="#7dcaac"></path><path d="M703.3 260L670.3 201L636.2 282Z" fill="#9ad0ab" stroke="#9ad0ab"></path><path d="M660.2 199L670.3 201L653.4 187Z" fill="#a5d3ab" stroke="#a5d3ab"></path><path d="M258.6 370L362.5 456L348.6 370Z" fill="#71c7ae" stroke="#71c7ae"></path><path d="M389.5 470L410.6 471L379.5 461Z" fill="#71c7ae" stroke="#71c7ae"></path><path d="M379.5 461L410.6 471L472.5 402Z" fill="#9ad0ab" stroke="#9ad0ab"></path><path d="M491.4 416L604.4 418L565.4 357Z" fill="#95cfab" stroke="#95cfab"></path><path d="M233.7 378L258.6 370L259.7 331Z" fill="#71c7ae" stroke="#71c7ae"></path><path d="M259.7 331L258.6 370L289.8 310Z" fill="#89cdab" stroke="#89cdab"></path><path d="M327.6 56L330.6 142L368.6 56Z" fill="#89cdab" stroke="#89cdab"></path><path d="M327.6 56L305.7 73L330.6 142Z" fill="#aad4ac" stroke="#aad4ac"></path><path d="M623.4 437L604.4 418L583.4 489Z" fill="#71c7ae" stroke="#71c7ae"></path><path d="M411.5 501L426.6 476L410.6 471Z" fill="#77c8ad" stroke="#77c8ad"></path><path d="M410.6 471L426.6 476L472.5 402Z" fill="#8fceab" stroke="#8fceab"></path><path d="M395.6 0L327.6 56L368.6 56Z" fill="#aad4ac" stroke="#aad4ac"></path><path d="M362.5 456L389.5 470L379.5 461Z" fill="#a0d2ab" stroke="#a0d2ab"></path><path d="M666.2 350L673.3 329L629.2 343Z" fill="#aad4ac" stroke="#aad4ac"></path><path d="M629.2 343L673.3 329L636.2 282Z" fill="#89cdab" stroke="#89cdab"></path><path d="M267.8 121L237.6 145L245.7 178Z" fill="#a0d2ab" stroke="#a0d2ab"></path><path d="M172.8 278L288.6 273L285.6 213Z" fill="#9ad0ab" stroke="#9ad0ab"></path><path d="M201.8 139L237.6 145L196.7 115Z" fill="#a5d3ab" stroke="#a5d3ab"></path><path d="M664.3 406L666.2 350L629.2 343Z" fill="#95cfab" stroke="#95cfab"></path><path d="M670.3 201L670.2 153L653.4 187Z" fill="#a5d3ab" stroke="#a5d3ab"></path><path d="M559.4 0L557.5 0L566.4 63Z" fill="#7dcaac" stroke="#7dcaac"></path><path d="M677.2 143L670.2 153L715.2 186Z" fill="#89cdab" stroke="#89cdab"></path><path d="M768.1 323L688.2 310L673.3 329Z" fill="#71c7ae" stroke="#71c7ae"></path><path d="M673.3 329L688.2 310L636.2 282Z" fill="#95cfab" stroke="#95cfab"></path><path d="M511.4 6L482.4 64L561.3 69Z" fill="#83cbac" stroke="#83cbac"></path><path d="M394.5 42L395.6 0L368.6 56Z" fill="#aad4ac" stroke="#aad4ac"></path><path d="M485.5 2L436.5 0L458.5 54Z" fill="#83cbac" stroke="#83cbac"></path><path d="M715.2 186L670.2 153L670.3 201Z" fill="#95cfab" stroke="#95cfab"></path><path d="M670.2 153L677.2 143L629.3 126Z" fill="#77c8ad" stroke="#77c8ad"></path><path d="M566.4 63L511.4 6L561.3 69Z" fill="#7dcaac" stroke="#7dcaac"></path><path d="M557.5 0L511.4 6L566.4 63Z" fill="#77c8ad" stroke="#77c8ad"></path><path d="M172.8 278L285.6 213L245.7 178Z" fill="#71c7ae" stroke="#71c7ae"></path><path d="M688.2 310L703.3 260L636.2 282Z" fill="#a0d2ab" stroke="#a0d2ab"></path><path d="M208.8 314L233.7 378L259.7 331Z" fill="#95cfab" stroke="#95cfab"></path><path d="M258.6 370L238.7 394L362.5 456Z" fill="#a0d2ab" stroke="#a0d2ab"></path><path d="M436.5 0L395.6 0L394.5 42Z" fill="#9ad0ab" stroke="#9ad0ab"></path><path d="M279.6 0L263.6 63L305.7 73Z" fill="#83cbac" stroke="#83cbac"></path><path d="M551.4 500L604.4 418L491.4 416Z" fill="#a0d2ab" stroke="#a0d2ab"></path><path d="M604.4 418L664.3 406L629.2 343Z" fill="#9ad0ab" stroke="#9ad0ab"></path><path d="M666.2 350L768.1 323L673.3 329Z" fill="#71c7ae" stroke="#71c7ae"></path><path d="M397.6 500L411.5 501L410.6 471Z" fill="#71c7ae" stroke="#71c7ae"></path><path d="M503.5 525L551.4 500L491.4 416Z" fill="#a5d3ab" stroke="#a5d3ab"></path><path d="M397.6 500L410.6 471L389.5 470Z" fill="#8fceab" stroke="#8fceab"></path><path d="M397.6 500L389.5 470L362.5 456Z" fill="#aad4ac" stroke="#aad4ac"></path><path d="M396.6 505L397.6 500L362.5 456Z" fill="#77c8ad" stroke="#77c8ad"></path><path d="M201.8 372L238.7 394L233.7 378Z" fill="#77c8ad" stroke="#77c8ad"></path><path d="M233.7 378L238.7 394L258.6 370Z" fill="#95cfab" stroke="#95cfab"></path><path d="M284.6 545L396.6 505L362.5 456Z" fill="#95cfab" stroke="#95cfab"></path><path d="M397.6 500L396.6 505L411.5 501Z" fill="#89cdab" stroke="#89cdab"></path><path d="M305.7 73L263.6 63L267.8 121Z" fill="#9ad0ab" stroke="#9ad0ab"></path><path d="M240.7 40L263.6 63L279.6 0Z" fill="#aad4ac" stroke="#aad4ac"></path><path d="M623.4 437L664.3 406L604.4 418Z" fill="#aad4ac" stroke="#aad4ac"></path><path d="M768.1 323L772.1 228L703.3 260Z" fill="#a5d3ab" stroke="#a5d3ab"></path><path d="M559.4 0L566.4 63L579.4 0Z" fill="#83cbac" stroke="#83cbac"></path><path d="M511.4 6L534.5 -21L485.5 2Z" fill="#9ad0ab" stroke="#9ad0ab"></path><path d="M485.5 2L534.5 -21L436.5 0Z" fill="#77c8ad" stroke="#77c8ad"></path><path d="M503.5 525L491.4 416L426.6 476Z" fill="#71c7ae" stroke="#71c7ae"></path><path d="M623.4 437L702.2 458L664.3 406Z" fill="#83cbac" stroke="#83cbac"></path><path d="M503.5 525L426.6 476L411.5 501Z" fill="#95cfab" stroke="#95cfab"></path><path d="M579.4 0L566.4 63L627.2 26Z" fill="#95cfab" stroke="#95cfab"></path><path d="M703.3 260L715.2 186L670.3 201Z" fill="#83cbac" stroke="#83cbac"></path><path d="M627.2 26L566.4 63L629.3 126Z" fill="#89cdab" stroke="#89cdab"></path><path d="M196.7 115L237.6 145L267.8 121Z" fill="#7dcaac" stroke="#7dcaac"></path><path d="M237.6 145L201.8 139L245.7 178Z" fill="#aad4ac" stroke="#aad4ac"></path><path d="M551.4 500L583.4 489L604.4 418Z" fill="#71c7ae" stroke="#71c7ae"></path><path d="M208.8 314L201.8 372L233.7 378Z" fill="#83cbac" stroke="#83cbac"></path><path d="M238.7 394L252.8 521L362.5 456Z" fill="#8fceab" stroke="#8fceab"></path><path d="M182.7 345L201.8 372L208.8 314Z" fill="#9ad0ab" stroke="#9ad0ab"></path><path d="M152.8 206L172.8 278L245.7 178Z" fill="#77c8ad" stroke="#77c8ad"></path><path d="M627.2 26L629.3 126L680.2 80Z" fill="#89cdab" stroke="#89cdab"></path><path d="M523.5 567L503.5 525L498.5 600Z" fill="#9ad0ab" stroke="#9ad0ab"></path><path d="M551.4 500L581.4 509L583.4 489Z" fill="#95cfab" stroke="#95cfab"></path><path d="M579.4 0L534.5 -21L559.4 0Z" fill="#a5d3ab" stroke="#a5d3ab"></path><path d="M559.4 0L534.5 -21L557.5 0Z" fill="#89cdab" stroke="#89cdab"></path><path d="M557.5 0L534.5 -21L511.4 6Z" fill="#a0d2ab" stroke="#a0d2ab"></path><path d="M436.5 0L534.5 -21L395.6 0Z" fill="#83cbac" stroke="#83cbac"></path><path d="M680.2 80L629.3 126L677.2 143Z" fill="#7dcaac" stroke="#7dcaac"></path><path d="M708.2 102L680.2 80L677.2 143Z" fill="#a0d2ab" stroke="#a0d2ab"></path><path d="M171.8 331L182.7 345L208.8 314Z" fill="#a0d2ab" stroke="#a0d2ab"></path><path d="M229.8 59L196.7 115L267.8 121Z" fill="#a5d3ab" stroke="#a5d3ab"></path><path d="M201.8 139L152.8 206L245.7 178Z" fill="#89cdab" stroke="#89cdab"></path><path d="M164.8 319L171.8 331L208.8 314Z" fill="#a0d2ab" stroke="#a0d2ab"></path><path d="M182.7 345L164.8 375L201.8 372Z" fill="#a0d2ab" stroke="#a0d2ab"></path><path d="M554.3 545L581.4 509L551.4 500Z" fill="#95cfab" stroke="#95cfab"></path><path d="M583.4 489L666.2 489L623.4 437Z" fill="#a0d2ab" stroke="#a0d2ab"></path><path d="M240.7 40L229.8 59L263.6 63Z" fill="#83cbac" stroke="#83cbac"></path><path d="M263.6 63L229.8 59L267.8 121Z" fill="#a0d2ab" stroke="#a0d2ab"></path><path d="M152.8 99L183.7 128L196.7 115Z" fill="#a5d3ab" stroke="#a5d3ab"></path><path d="M196.7 115L183.7 128L201.8 139Z" fill="#aad4ac" stroke="#aad4ac"></path><path d="M141.8 237L164.8 319L172.8 278Z" fill="#89cdab" stroke="#89cdab"></path><path d="M172.8 278L164.8 319L208.8 314Z" fill="#9ad0ab" stroke="#9ad0ab"></path><path d="M715.2 186L708.2 102L677.2 143Z" fill="#9ad0ab" stroke="#9ad0ab"></path><path d="M659.3 0L639.2 0L627.2 26Z" fill="#aad4ac" stroke="#aad4ac"></path><path d="M229.8 59L152.8 99L196.7 115Z" fill="#8fceab" stroke="#8fceab"></path><path d="M279.6 0L305.7 73L327.6 56Z" fill="#a5d3ab" stroke="#a5d3ab"></path><path d="M183.7 128L152.8 206L201.8 139Z" fill="#71c7ae" stroke="#71c7ae"></path><path d="M282.8 -22L279.6 0L395.6 0Z" fill="#83cbac" stroke="#83cbac"></path><path d="M395.6 0L279.6 0L327.6 56Z" fill="#83cbac" stroke="#83cbac"></path><path d="M240.7 40L224.8 40L229.8 59Z" fill="#8fceab" stroke="#8fceab"></path><path d="M235.8 0L224.8 40L240.7 40Z" fill="#aad4ac" stroke="#aad4ac"></path><path d="M152.8 206L141.8 237L172.8 278Z" fill="#a5d3ab" stroke="#a5d3ab"></path><path d="M659.3 0L627.2 26L680.2 80Z" fill="#89cdab" stroke="#89cdab"></path><path d="M627.2 26L639.2 0L579.4 0Z" fill="#89cdab" stroke="#89cdab"></path><path d="M579.4 0L639.2 0L534.5 -21Z" fill="#77c8ad" stroke="#77c8ad"></path><path d="M129.9 352L171.8 331L164.8 319Z" fill="#83cbac" stroke="#83cbac"></path><path d="M129.9 352L164.8 375L171.8 331Z" fill="#a0d2ab" stroke="#a0d2ab"></path><path d="M171.8 331L164.8 375L182.7 345Z" fill="#aad4ac" stroke="#aad4ac"></path><path d="M201.8 372L208.7 465L238.7 394Z" fill="#9ad0ab" stroke="#9ad0ab"></path><path d="M503.5 525L554.3 545L551.4 500Z" fill="#71c7ae" stroke="#71c7ae"></path><path d="M663.2 513L666.2 489L583.4 489Z" fill="#a0d2ab" stroke="#a0d2ab"></path><path d="M523.5 567L554.3 545L503.5 525Z" fill="#83cbac" stroke="#83cbac"></path><path d="M534.5 -21L282.8 -22L395.6 0Z" fill="#71c7ae" stroke="#71c7ae"></path><path d="M279.6 0L235.8 0L240.7 40Z" fill="#89cdab" stroke="#89cdab"></path><path d="M703.3 260L772.1 228L715.2 186Z" fill="#89cdab" stroke="#89cdab"></path><path d="M715.2 186L789.1 159L708.2 102Z" fill="#9ad0ab" stroke="#9ad0ab"></path><path d="M768.1 323L703.3 260L688.2 310Z" fill="#9ad0ab" stroke="#9ad0ab"></path><path d="M663.2 513L583.4 489L581.4 509Z" fill="#83cbac" stroke="#83cbac"></path><path d="M777.1 384L768.1 323L666.2 350Z" fill="#aad4ac" stroke="#aad4ac"></path><path d="M689.2 -4L659.3 0L680.2 80Z" fill="#89cdab" stroke="#89cdab"></path><path d="M639.2 0L689.2 -4L534.5 -21Z" fill="#9ad0ab" stroke="#9ad0ab"></path><path d="M689.2 -4L680.2 80L766.2 18Z" fill="#95cfab" stroke="#95cfab"></path><path d="M164.8 375L208.7 465L201.8 372Z" fill="#9ad0ab" stroke="#9ad0ab"></path><path d="M439.6 600L503.5 525L411.5 501Z" fill="#89cdab" stroke="#89cdab"></path><path d="M777.1 384L666.2 350L664.3 406Z" fill="#aad4ac" stroke="#aad4ac"></path><path d="M439.6 600L411.5 501L419.5 600Z" fill="#a5d3ab" stroke="#a5d3ab"></path><path d="M554.3 545L593.4 555L581.4 509Z" fill="#9ad0ab" stroke="#9ad0ab"></path><path d="M666.2 489L702.2 458L623.4 437Z" fill="#a5d3ab" stroke="#a5d3ab"></path><path d="M282.8 -22L235.8 0L279.6 0Z" fill="#95cfab" stroke="#95cfab"></path><path d="M224.8 40L152.8 99L229.8 59Z" fill="#89cdab" stroke="#89cdab"></path><path d="M177.8 0L152.8 99L224.8 40Z" fill="#a5d3ab" stroke="#a5d3ab"></path><path d="M183.7 128L119.9 152L152.8 206Z" fill="#7dcaac" stroke="#7dcaac"></path><path d="M152.8 206L82.9 238L141.8 237Z" fill="#77c8ad" stroke="#77c8ad"></path><path d="M777.1 384L777.1 323L768.1 323Z" fill="#71c7ae" stroke="#71c7ae"></path><path d="M768.1 323L804.2 269L772.1 228Z" fill="#a5d3ab" stroke="#a5d3ab"></path><path d="M208.7 465L252.8 521L238.7 394Z" fill="#8fceab" stroke="#8fceab"></path><path d="M118.9 346L164.8 319L141.8 237Z" fill="#89cdab" stroke="#89cdab"></path><path d="M118.9 346L129.9 352L164.8 319Z" fill="#8fceab" stroke="#8fceab"></path><path d="M164.8 375L137.8 470L208.7 465Z" fill="#83cbac" stroke="#83cbac"></path><path d="M596.3 567L593.4 555L554.3 545Z" fill="#95cfab" stroke="#95cfab"></path><path d="M666.2 489L680.3 511L702.2 458Z" fill="#95cfab" stroke="#95cfab"></path><path d="M593.4 555L663.2 513L581.4 509Z" fill="#95cfab" stroke="#95cfab"></path><path d="M152.8 99L137.8 117L183.7 128Z" fill="#a0d2ab" stroke="#a0d2ab"></path><path d="M252.8 521L284.6 545L362.5 456Z" fill="#8fceab" stroke="#8fceab"></path><path d="M137.8 117L119.9 152L183.7 128Z" fill="#95cfab" stroke="#95cfab"></path><path d="M82.9 238L118.9 346L141.8 237Z" fill="#95cfab" stroke="#95cfab"></path><path d="M129.9 352L111.9 365L164.8 375Z" fill="#a5d3ab" stroke="#a5d3ab"></path><path d="M766.2 18L680.2 80L708.2 102Z" fill="#77c8ad" stroke="#77c8ad"></path><path d="M659.3 0L689.2 -4L639.2 0Z" fill="#8fceab" stroke="#8fceab"></path><path d="M669.2 600L680.3 511L663.2 513Z" fill="#a0d2ab" stroke="#a0d2ab"></path><path d="M663.2 513L680.3 511L666.2 489Z" fill="#8fceab" stroke="#8fceab"></path><path d="M702.2 458L777.1 384L664.3 406Z" fill="#77c8ad" stroke="#77c8ad"></path><path d="M797.1 162L789.1 159L772.1 228Z" fill="#7dcaac" stroke="#7dcaac"></path><path d="M772.1 228L789.1 159L715.2 186Z" fill="#aad4ac" stroke="#aad4ac"></path><path d="M523.5 567L596.3 567L554.3 545Z" fill="#71c7ae" stroke="#71c7ae"></path><path d="M593.4 555L596.3 567L663.2 513Z" fill="#89cdab" stroke="#89cdab"></path><path d="M419.5 600L411.5 501L396.6 505Z" fill="#aad4ac" stroke="#aad4ac"></path><path d="M523.5 567L601.4 600L596.3 567Z" fill="#aad4ac" stroke="#aad4ac"></path><path d="M394.6 600L419.5 600L396.6 505Z" fill="#8fceab" stroke="#8fceab"></path><path d="M799.2 396L777.1 384L799.2 410Z" fill="#7dcaac" stroke="#7dcaac"></path><path d="M777.1 323L804.2 269L768.1 323Z" fill="#71c7ae" stroke="#71c7ae"></path><path d="M809.1 308L804.2 269L777.1 323Z" fill="#71c7ae" stroke="#71c7ae"></path><path d="M439.6 600L498.5 600L503.5 525Z" fill="#8fceab" stroke="#8fceab"></path><path d="M498.5 600L506.4 600L523.5 567Z" fill="#95cfab" stroke="#95cfab"></path><path d="M284.6 545L394.6 600L396.6 505Z" fill="#a0d2ab" stroke="#a0d2ab"></path><path d="M882.1 231L797.1 162L772.1 228Z" fill="#9ad0ab" stroke="#9ad0ab"></path><path d="M789.1 159L766.2 18L708.2 102Z" fill="#71c7ae" stroke="#71c7ae"></path><path d="M152.8 99L80.9 115L137.8 117Z" fill="#83cbac" stroke="#83cbac"></path><path d="M137.8 117L80.9 115L119.9 152Z" fill="#89cdab" stroke="#89cdab"></path><path d="M235.8 0L192.7 0L224.8 40Z" fill="#89cdab" stroke="#89cdab"></path><path d="M282.8 -22L192.7 0L235.8 0Z" fill="#a0d2ab" stroke="#a0d2ab"></path><path d="M118.9 346L111.9 365L129.9 352Z" fill="#83cbac" stroke="#83cbac"></path><path d="M208.7 465L223.7 554L252.8 521Z" fill="#95cfab" stroke="#95cfab"></path><path d="M66.9 358L111.9 365L118.9 346Z" fill="#89cdab" stroke="#89cdab"></path><path d="M847.1 336L809.1 308L777.1 323Z" fill="#89cdab" stroke="#89cdab"></path><path d="M804.2 269L882.1 231L772.1 228Z" fill="#7dcaac" stroke="#7dcaac"></path><path d="M282.8 -22L180.9 0L192.7 0Z" fill="#7dcaac" stroke="#7dcaac"></path><path d="M192.7 0L180.9 0L224.8 40Z" fill="#71c7ae" stroke="#71c7ae"></path><path d="M65.9 153L82.9 238L119.9 152Z" fill="#83cbac" stroke="#83cbac"></path><path d="M119.9 152L82.9 238L152.8 206Z" fill="#95cfab" stroke="#95cfab"></path><path d="M64.9 -31L177.8 0L180.9 0Z" fill="#7dcaac" stroke="#7dcaac"></path><path d="M180.9 0L177.8 0L224.8 40Z" fill="#aad4ac" stroke="#aad4ac"></path><path d="M749.2 483L777.1 384L702.2 458Z" fill="#71c7ae" stroke="#71c7ae"></path><path d="M777.1 384L847.1 336L777.1 323Z" fill="#7dcaac" stroke="#7dcaac"></path><path d="M680.3 511L749.2 483L702.2 458Z" fill="#77c8ad" stroke="#77c8ad"></path><path d="M769.1 512L749.2 483L728.2 559Z" fill="#a5d3ab" stroke="#a5d3ab"></path><path d="M252.8 521L223.7 554L284.6 545Z" fill="#95cfab" stroke="#95cfab"></path><path d="M284.6 545L369.6 627L394.6 600Z" fill="#7dcaac" stroke="#7dcaac"></path><path d="M153.9 509L223.7 554L208.7 465Z" fill="#a5d3ab" stroke="#a5d3ab"></path><path d="M506.4 600L601.4 600L523.5 567Z" fill="#77c8ad" stroke="#77c8ad"></path><path d="M596.3 567L669.2 600L663.2 513Z" fill="#83cbac" stroke="#83cbac"></path><path d="M601.4 600L602.3 600L596.3 567Z" fill="#77c8ad" stroke="#77c8ad"></path><path d="M97.8 408L137.8 470L164.8 375Z" fill="#71c7ae" stroke="#71c7ae"></path><path d="M749.2 483L799.2 410L777.1 384Z" fill="#7dcaac" stroke="#7dcaac"></path><path d="M799.2 396L847.1 336L777.1 384Z" fill="#95cfab" stroke="#95cfab"></path><path d="M264.7 600L369.6 627L284.6 545Z" fill="#a5d3ab" stroke="#a5d3ab"></path><path d="M394.6 600L369.6 627L419.5 600Z" fill="#83cbac" stroke="#83cbac"></path><path d="M419.5 600L369.6 627L439.6 600Z" fill="#83cbac" stroke="#83cbac"></path><path d="M439.6 600L369.6 627L498.5 600Z" fill="#77c8ad" stroke="#77c8ad"></path><path d="M498.5 600L369.6 627L506.4 600Z" fill="#7dcaac" stroke="#7dcaac"></path><path d="M506.4 600L369.6 627L601.4 600Z" fill="#aad4ac" stroke="#aad4ac"></path><path d="M601.4 600L369.6 627L602.3 600Z" fill="#89cdab" stroke="#89cdab"></path><path d="M66.9 358L97.8 408L111.9 365Z" fill="#71c7ae" stroke="#71c7ae"></path><path d="M111.9 365L97.8 408L164.8 375Z" fill="#a0d2ab" stroke="#a0d2ab"></path><path d="M856.1 66L766.2 18L789.1 159Z" fill="#77c8ad" stroke="#77c8ad"></path><path d="M109.9 0L80.9 115L152.8 99Z" fill="#a0d2ab" stroke="#a0d2ab"></path><path d="M136.8 519L153.9 509L137.8 470Z" fill="#9ad0ab" stroke="#9ad0ab"></path><path d="M137.8 470L153.9 509L208.7 465Z" fill="#8fceab" stroke="#8fceab"></path><path d="M80.9 115L65.9 153L119.9 152Z" fill="#71c7ae" stroke="#71c7ae"></path><path d="M82.9 238L66.9 358L118.9 346Z" fill="#95cfab" stroke="#95cfab"></path><path d="M228.8 600L264.7 600L223.7 554Z" fill="#95cfab" stroke="#95cfab"></path><path d="M223.7 554L264.7 600L284.6 545Z" fill="#95cfab" stroke="#95cfab"></path><path d="M0 280L66.9 358L82.9 238Z" fill="#a0d2ab" stroke="#a0d2ab"></path><path d="M97.8 408L82.8 429L137.8 470Z" fill="#71c7ae" stroke="#71c7ae"></path><path d="M815.1 468L815.1 414L799.2 410Z" fill="#77c8ad" stroke="#77c8ad"></path><path d="M799.2 410L815.1 414L799.2 396Z" fill="#9ad0ab" stroke="#9ad0ab"></path><path d="M815.1 414L847.1 336L799.2 396Z" fill="#77c8ad" stroke="#77c8ad"></path><path d="M809.1 308L859.1 285L804.2 269Z" fill="#a0d2ab" stroke="#a0d2ab"></path><path d="M834.1 0L776.2 0L766.2 18Z" fill="#89cdab" stroke="#89cdab"></path><path d="M856.1 66L789.1 159L797.1 162Z" fill="#77c8ad" stroke="#77c8ad"></path><path d="M766.2 18L776.2 0L689.2 -4Z" fill="#a5d3ab" stroke="#a5d3ab"></path><path d="M689.2 -4L880.1 -21L534.5 -21Z" fill="#9ad0ab" stroke="#9ad0ab"></path><path d="M32.9 96L63.9 115L42.9 65Z" fill="#7dcaac" stroke="#7dcaac"></path><path d="M80.9 115L63.9 115L65.9 153Z" fill="#71c7ae" stroke="#71c7ae"></path><path d="M27.9 217L27.9 241L82.9 238Z" fill="#83cbac" stroke="#83cbac"></path><path d="M847.1 336L859.1 285L809.1 308Z" fill="#89cdab" stroke="#89cdab"></path><path d="M66.9 358L82.8 429L97.8 408Z" fill="#83cbac" stroke="#83cbac"></path><path d="M749.2 483L815.1 468L799.2 410Z" fill="#89cdab" stroke="#89cdab"></path><path d="M728.2 559L749.2 483L680.3 511Z" fill="#7dcaac" stroke="#7dcaac"></path><path d="M766.2 610L669.2 600L602.3 600Z" fill="#89cdab" stroke="#89cdab"></path><path d="M602.3 600L669.2 600L596.3 567Z" fill="#a5d3ab" stroke="#a5d3ab"></path><path d="M64.9 478L136.8 519L137.8 470Z" fill="#a0d2ab" stroke="#a0d2ab"></path><path d="M153.9 509L136.8 519L223.7 554Z" fill="#83cbac" stroke="#83cbac"></path><path d="M219.8 600L228.8 600L223.7 554Z" fill="#9ad0ab" stroke="#9ad0ab"></path><path d="M264.7 600L183.8 631L369.6 627Z" fill="#a5d3ab" stroke="#a5d3ab"></path><path d="M669.2 600L728.2 559L680.3 511Z" fill="#a5d3ab" stroke="#a5d3ab"></path><path d="M82.8 429L75.9 436L137.8 470Z" fill="#aad4ac" stroke="#aad4ac"></path><path d="M66.9 358L75.9 436L82.8 429Z" fill="#aad4ac" stroke="#aad4ac"></path><path d="M113.9 553L219.8 600L223.7 554Z" fill="#95cfab" stroke="#95cfab"></path><path d="M228.8 600L183.8 631L264.7 600Z" fill="#7dcaac" stroke="#7dcaac"></path><path d="M64.9 -31L109.9 0L177.8 0Z" fill="#89cdab" stroke="#89cdab"></path><path d="M177.8 0L109.9 0L152.8 99Z" fill="#77c8ad" stroke="#77c8ad"></path><path d="M27.9 217L82.9 238L65.9 153Z" fill="#a0d2ab" stroke="#a0d2ab"></path><path d="M43.9 471L64.9 478L75.9 436Z" fill="#71c7ae" stroke="#71c7ae"></path><path d="M0 218L27.9 217L0 180Z" fill="#9ad0ab" stroke="#9ad0ab"></path><path d="M866.1 454L815.1 468L881.1 479Z" fill="#9ad0ab" stroke="#9ad0ab"></path><path d="M769.1 512L815.1 468L749.2 483Z" fill="#9ad0ab" stroke="#9ad0ab"></path><path d="M900 364L900 343L847.1 336Z" fill="#a0d2ab" stroke="#a0d2ab"></path><path d="M900 268L859.1 285L900 343Z" fill="#83cbac" stroke="#83cbac"></path><path d="M900 268L882.1 231L859.1 285Z" fill="#a5d3ab" stroke="#a5d3ab"></path><path d="M859.1 285L882.1 231L804.2 269Z" fill="#9ad0ab" stroke="#9ad0ab"></path><path d="M900 116L856.1 66L797.1 162Z" fill="#77c8ad" stroke="#77c8ad"></path><path d="M42.9 65L63.9 115L80.9 115Z" fill="#89cdab" stroke="#89cdab"></path><path d="M0 141L4.9 159L65.9 153Z" fill="#71c7ae" stroke="#71c7ae"></path><path d="M109.9 0L42.9 65L80.9 115Z" fill="#95cfab" stroke="#95cfab"></path><path d="M75.9 436L64.9 478L137.8 470Z" fill="#95cfab" stroke="#95cfab"></path><path d="M136.8 519L113.9 553L223.7 554Z" fill="#77c8ad" stroke="#77c8ad"></path><path d="M43.9 471L75.9 436L0 439Z" fill="#89cdab" stroke="#89cdab"></path><path d="M900 343L859.1 285L847.1 336Z" fill="#71c7ae" stroke="#71c7ae"></path><path d="M882.1 231L900 136L797.1 162Z" fill="#77c8ad" stroke="#77c8ad"></path><path d="M900 268L900 228L882.1 231Z" fill="#aad4ac" stroke="#aad4ac"></path><path d="M669.2 600L732.2 600L728.2 559Z" fill="#89cdab" stroke="#89cdab"></path><path d="M728.2 559L766.2 610L769.1 512Z" fill="#8fceab" stroke="#8fceab"></path><path d="M766.2 610L732.2 600L669.2 600Z" fill="#a5d3ab" stroke="#a5d3ab"></path><path d="M27.9 217L0 218L27.9 241Z" fill="#83cbac" stroke="#83cbac"></path><path d="M27.9 241L0 280L82.9 238Z" fill="#7dcaac" stroke="#7dcaac"></path><path d="M0 180L27.9 217L65.9 153Z" fill="#77c8ad" stroke="#77c8ad"></path><path d="M0 218L0 280L27.9 241Z" fill="#a0d2ab" stroke="#a0d2ab"></path><path d="M64.9 478L113.9 553L136.8 519Z" fill="#a5d3ab" stroke="#a5d3ab"></path><path d="M0 141L65.9 153L63.9 115Z" fill="#77c8ad" stroke="#77c8ad"></path><path d="M0 141L63.9 115L0 123Z" fill="#aad4ac" stroke="#aad4ac"></path><path d="M4.9 159L0 180L65.9 153Z" fill="#9ad0ab" stroke="#9ad0ab"></path><path d="M856.1 66L834.1 0L766.2 18Z" fill="#aad4ac" stroke="#aad4ac"></path><path d="M776.2 0L880.1 -21L689.2 -4Z" fill="#89cdab" stroke="#89cdab"></path><path d="M900 364L847.1 336L815.1 414Z" fill="#95cfab" stroke="#95cfab"></path><path d="M866.1 454L815.1 414L815.1 468Z" fill="#77c8ad" stroke="#77c8ad"></path><path d="M900 228L900 136L882.1 231Z" fill="#8fceab" stroke="#8fceab"></path><path d="M856.1 66L857.1 0L834.1 0Z" fill="#aad4ac" stroke="#aad4ac"></path><path d="M881.1 479L815.1 468L872.1 524Z" fill="#77c8ad" stroke="#77c8ad"></path><path d="M900 422L900 364L815.1 414Z" fill="#a5d3ab" stroke="#a5d3ab"></path><path d="M0 123L63.9 115L32.9 96Z" fill="#aad4ac" stroke="#aad4ac"></path><path d="M4.9 159L0 141L0 180Z" fill="#aad4ac" stroke="#aad4ac"></path><path d="M0 375L75.9 436L66.9 358Z" fill="#a0d2ab" stroke="#a0d2ab"></path><path d="M64.9 478L21.9 505L113.9 553Z" fill="#89cdab" stroke="#89cdab"></path><path d="M113.9 553L183.8 631L219.8 600Z" fill="#8fceab" stroke="#8fceab"></path><path d="M219.8 600L183.8 631L228.8 600Z" fill="#95cfab" stroke="#95cfab"></path><path d="M0 17L0 123L32.9 96Z" fill="#a5d3ab" stroke="#a5d3ab"></path><path d="M900 136L900 116L797.1 162Z" fill="#aad4ac" stroke="#aad4ac"></path><path d="M0 280L0 375L66.9 358Z" fill="#a5d3ab" stroke="#a5d3ab"></path><path d="M874.1 4L857.1 0L856.1 66Z" fill="#7dcaac" stroke="#7dcaac"></path><path d="M834.1 0L880.1 -21L776.2 0Z" fill="#a0d2ab" stroke="#a0d2ab"></path><path d="M109.9 0L64.9 -31L42.9 65Z" fill="#9ad0ab" stroke="#9ad0ab"></path><path d="M42.9 65L0 17L32.9 96Z" fill="#95cfab" stroke="#95cfab"></path><path d="M282.8 -22L64.9 -31L180.9 0Z" fill="#aad4ac" stroke="#aad4ac"></path><path d="M534.5 -21L64.9 -31L282.8 -22Z" fill="#aad4ac" stroke="#aad4ac"></path><path d="M900 116L900 83L856.1 66Z" fill="#95cfab" stroke="#95cfab"></path><path d="M851.1 628L766.2 610L602.3 600Z" fill="#aad4ac" stroke="#aad4ac"></path><path d="M732.2 600L766.2 610L728.2 559Z" fill="#7dcaac" stroke="#7dcaac"></path><path d="M922.1 344L900.1 78L900 83Z" fill="#9ad0ab" stroke="#9ad0ab"></path><path d="M900 83L900.1 78L856.1 66Z" fill="#71c7ae" stroke="#71c7ae"></path><path d="M922.1 344L900 83L900 116Z" fill="#a5d3ab" stroke="#a5d3ab"></path><path d="M922.1 344L900 116L900 136Z" fill="#89cdab" stroke="#89cdab"></path><path d="M922.1 344L900 136L900 228Z" fill="#8fceab" stroke="#8fceab"></path><path d="M922.1 344L900 228L900 268Z" fill="#83cbac" stroke="#83cbac"></path><path d="M922.1 344L900 268L900 343Z" fill="#a0d2ab" stroke="#a0d2ab"></path><path d="M900 422L922.1 344L900 364Z" fill="#a0d2ab" stroke="#a0d2ab"></path><path d="M900 364L922.1 344L900 343Z" fill="#89cdab" stroke="#89cdab"></path><path d="M900 426L900 422L866.1 454Z" fill="#9ad0ab" stroke="#9ad0ab"></path><path d="M866.1 454L900 422L815.1 414Z" fill="#a0d2ab" stroke="#a0d2ab"></path><path d="M881.1 479L900 426L866.1 454Z" fill="#9ad0ab" stroke="#9ad0ab"></path><path d="M900 422L900 426L922.1 344Z" fill="#9ad0ab" stroke="#9ad0ab"></path><path d="M872.1 524L815.1 468L769.1 512Z" fill="#71c7ae" stroke="#71c7ae"></path><path d="M900 31L874.1 4L856.1 66Z" fill="#7dcaac" stroke="#7dcaac"></path><path d="M43.9 471L21.9 505L64.9 478Z" fill="#a5d3ab" stroke="#a5d3ab"></path><path d="M113.9 553L80.9 600L183.8 631Z" fill="#71c7ae" stroke="#71c7ae"></path><path d="M0 375L0 439L75.9 436Z" fill="#9ad0ab" stroke="#9ad0ab"></path><path d="M0 439L0 451L43.9 471Z" fill="#95cfab" stroke="#95cfab"></path><path d="M922.1 344L900 31L900.1 78Z" fill="#aad4ac" stroke="#aad4ac"></path><path d="M900.1 78L900 31L856.1 66Z" fill="#a5d3ab" stroke="#a5d3ab"></path><path d="M0 490L21.9 505L43.9 471Z" fill="#89cdab" stroke="#89cdab"></path><path d="M830.1 600L872.1 524L769.1 512Z" fill="#89cdab" stroke="#89cdab"></path><path d="M881.1 479L900 600L900 426Z" fill="#83cbac" stroke="#83cbac"></path><path d="M900 0L880.1 -21L874.1 4Z" fill="#aad4ac" stroke="#aad4ac"></path><path d="M874.1 4L880.1 -21L857.1 0Z" fill="#aad4ac" stroke="#aad4ac"></path><path d="M857.1 0L880.1 -21L834.1 0Z" fill="#8fceab" stroke="#8fceab"></path><path d="M534.5 -21L880.1 -21L64.9 -31Z" fill="#77c8ad" stroke="#77c8ad"></path><path d="M64.9 -31L0 17L42.9 65Z" fill="#95cfab" stroke="#95cfab"></path><path d="M74.9 600L80.9 600L113.9 553Z" fill="#aad4ac" stroke="#aad4ac"></path><path d="M0 451L0 490L43.9 471Z" fill="#a0d2ab" stroke="#a0d2ab"></path><path d="M21.9 505L74.9 600L113.9 553Z" fill="#71c7ae" stroke="#71c7ae"></path><path d="M922.1 344L900 0L900 31Z" fill="#95cfab" stroke="#95cfab"></path><path d="M900 31L900 0L874.1 4Z" fill="#77c8ad" stroke="#77c8ad"></path><path d="M0 523L74.9 600L21.9 505Z" fill="#83cbac" stroke="#83cbac"></path><path d="M80.9 600L38.9 628L183.8 631Z" fill="#7dcaac" stroke="#7dcaac"></path><path d="M64.9 -31L0 0L0 17Z" fill="#7dcaac" stroke="#7dcaac"></path><path d="M766.2 610L830.1 600L769.1 512Z" fill="#95cfab" stroke="#95cfab"></path><path d="M0 490L0 523L21.9 505Z" fill="#89cdab" stroke="#89cdab"></path><path d="M851.1 628L871.1 600L830.1 600Z" fill="#8fceab" stroke="#8fceab"></path><path d="M830.1 600L871.1 600L872.1 524Z" fill="#71c7ae" stroke="#71c7ae"></path><path d="M872.1 524L900 600L881.1 479Z" fill="#aad4ac" stroke="#aad4ac"></path><path d="M900 426L900 600L922.1 344Z" fill="#8fceab" stroke="#8fceab"></path><path d="M766.2 610L851.1 628L830.1 600Z" fill="#aad4ac" stroke="#aad4ac"></path><path d="M369.6 627L851.1 628L602.3 600Z" fill="#71c7ae" stroke="#71c7ae"></path><path d="M183.8 631L851.1 628L369.6 627Z" fill="#a5d3ab" stroke="#a5d3ab"></path><path d="M0 600L38.9 628L74.9 600Z" fill="#9ad0ab" stroke="#9ad0ab"></path><path d="M74.9 600L38.9 628L80.9 600Z" fill="#9ad0ab" stroke="#9ad0ab"></path><path d="M900 613L900 600L871.1 600Z" fill="#89cdab" stroke="#89cdab"></path><path d="M871.1 600L900 600L872.1 524Z" fill="#89cdab" stroke="#89cdab"></path><path d="M0 523L0 600L74.9 600Z" fill="#95cfab" stroke="#95cfab"></path><path d="M851.1 628L900 613L871.1 600Z" fill="#7dcaac" stroke="#7dcaac"></path><path d="M900 600L900 613L922.1 344Z" fill="#aad4ac" stroke="#aad4ac"></path></g></svg>