<svg id="visual" viewBox="0 0 900 600" width="900" height="600" xmlns="http://www.w3.org/2000/svg" xmlns:xlink="http://www.w3.org/1999/xlink" version="1.1"><path d="M0 226L129 217L257 241L386 218L514 210L643 154L771 177L900 237L900 0L771 0L643 0L514 0L386 0L257 0L129 0L0 0Z" fill="#9eafa2"></path><path d="M0 141L129 120L257 120L386 128L514 175L643 141L771 173L900 133L900 0L771 0L643 0L514 0L386 0L257 0L129 0L0 0Z" fill="#73877c"></path><path d="M0 160L129 135L257 146L386 160L514 147L643 101L771 155L900 121L900 0L771 0L643 0L514 0L386 0L257 0L129 0L0 0Z" fill="#4b6058"></path><path d="M0 59L129 56L257 88L386 69L514 66L643 109L771 59L900 112L900 0L771 0L643 0L514 0L386 0L257 0L129 0L0 0Z" fill="#253c37"></path><path d="M0 54L129 34L257 40L386 58L514 69L643 68L771 42L900 35L900 0L771 0L643 0L514 0L386 0L257 0L129 0L0 0Z" fill="#001b19"></path></svg>